<?xml version="1.0" encoding="UTF-8" standalone="no"?>
<!DOCTYPE svg PUBLIC "-//W3C//DTD SVG 1.1//EN" "http://www.w3.org/Graphics/SVG/1.1/DTD/svg11.dtd">
<svg width="100%" height="100%" viewBox="0 0 875 615" version="1.1" xmlns="http://www.w3.org/2000/svg" xmlns:xlink="http://www.w3.org/1999/xlink" xml:space="preserve" xmlns:serif="http://www.serif.com/" style="fill-rule:evenodd;clip-rule:evenodd;stroke-linecap:round;stroke-linejoin:round;stroke-miterlimit:1.5;">
    <g transform="matrix(0.997367,1.02525,-1.02525,0.997367,183.043,-373.348)">
        <path d="M510.719,173.248L596.404,173.248L711.318,233.339L512.376,233.339L510.719,173.248Z" style="fill:rgb(235,235,235);fill-opacity:0;stroke:white;stroke-width:18.2px;"/>
    </g>
    <g transform="matrix(0.997367,1.02525,-1.02525,0.997367,147.381,-435.697)">
        <path d="M452.262,233.339L251.663,233.339L366.577,173.248L450.605,173.248L452.262,233.339Z" style="fill:rgb(235,235,235);fill-opacity:0;stroke:white;stroke-width:18.2px;"/>
    </g>
    <g transform="matrix(-0.997367,1.02525,1.02525,0.997367,690.973,-373.348)">
        <path d="M510.719,173.248L596.404,173.248L711.318,233.339L512.376,233.339L510.719,173.248Z" style="fill:white;fill-opacity:0;stroke:white;stroke-width:18.2px;"/>
    </g>
    <g transform="matrix(-0.997367,1.02525,1.02525,0.997367,726.635,-435.697)">
        <path d="M452.262,233.339L251.663,233.339L366.577,173.248L450.605,173.248L452.262,233.339Z" style="fill:white;fill-opacity:0;stroke:white;stroke-width:18.2px;"/>
    </g>
    <g transform="matrix(1.01329,0,0,0.769231,-27.9757,116.151)">
        <path d="M765.154,222.696L146.066,222.696L153.777,232.854L770.359,232.854L765.154,222.696Z" style="fill:white;"/>
    </g>
</svg>
